<svg id="Capa_1" enable-background="new 0 0 430.983 430.983" viewBox="0 0 430.983 430.983" xmlns="http://www.w3.org/2000/svg"><g><g><g><g><path d="m374.725 367.879c-3.877 0-7-3.14-7-7v-12.902h-43.39c-2.831 0-5.387-1.716-6.468-4.324-1.081-2.625-.48-5.627 1.527-7.635l50.407-50.407c2.007-2.007 5.01-2.608 7.635-1.527s4.324 3.637 4.324 6.468v43.39h14.154c3.878 0 7 3.14 7 7s-3.14 7-7 7h-14.189v12.902c0 3.896-3.122 7.035-7 7.035zm-33.49-33.919h26.49v-26.473z" fill="#000000" style="fill: rgb(177, 174, 174);"></path></g><g><path d="m311.433 367.811h-51.282c-2.831 0-5.387-1.699-6.468-4.324-1.081-2.608-.498-5.627 1.51-7.635l50.716-50.888c2.728-2.745 7.172-2.745 9.9-.017 2.745 2.728 2.745 7.172.017 9.9l-38.809 38.929h34.4c3.877 0 7 3.14 7 7s-3.106 7.035-6.984 7.035z" fill="#000000" style="fill: rgb(177, 174, 174);"></path></g><g><path d="m263.273 322.105c-3.877 0-7-3.14-7-7 0-17.14 13.949-31.088 31.088-31.088 14.498 0 27.262 10.26 30.368 24.414.824 3.775-1.561 7.515-5.353 8.338-3.775.824-7.515-1.561-8.338-5.353-1.699-7.755-8.716-13.4-16.677-13.4-9.419 0-17.071 7.652-17.071 17.071-.017 3.895-3.156 7.018-7.017 7.018z" fill="#000000" style="fill: rgb(177, 174, 174);"></path></g></g><g><path d="m325.982 430.708c-57.888 0-105.001-47.096-105.001-105.001s47.096-105.001 105.001-105.001 105.001 47.096 105.001 105.001-47.113 105.001-105.001 105.001zm0-195.967c-50.167 0-90.983 40.816-90.983 90.983s40.816 90.983 90.983 90.983 90.983-40.816 90.983-90.983-40.816-90.983-90.983-90.983z" fill="#000000" style="fill: rgb(177, 174, 174);"></path></g><g><path d="m195.212 390.715c-107.643 0-195.212-87.569-195.212-195.212s87.569-195.229 195.212-195.229 195.212 87.569 195.212 195.212c0 16.454-2.059 32.821-6.125 48.623-.961 3.74-4.787 6.005-8.527 5.044s-6.005-4.787-5.044-8.527c3.775-14.669 5.696-29.853 5.696-45.123 0-99.922-81.29-181.212-181.212-181.212s-181.212 81.29-181.212 181.212 81.29 181.212 181.212 181.212c15.544 0 30.968-1.973 45.878-5.885 3.757-.978 7.566 1.27 8.544 5.01s-1.252 7.566-5.01 8.544c-16.042 4.204-32.667 6.331-49.412 6.331z" fill="#000000" style="fill: rgb(177, 174, 174);"></path></g><g><path d="m292.526 202.503h-96.439c-3.877 0-7-3.14-7-7v-152.216c0-3.877 3.14-7 7-7s7 3.14 7 7v145.216h89.439c3.877 0 7 3.14 7 7s-3.14 7-7 7z" fill="#000000" style="fill: rgb(177, 174, 174);"></path></g></g></g></svg>
