<svg width="50" height="50" viewBox="0 0 50 50" fill="none" xmlns="http://www.w3.org/2000/svg">
<g clip-path="url(#clip0_20_215)">
<path d="M38.7387 28.2046L31.6765 26.3123C31.2155 26.186 30.7292 26.1846 30.2676 26.3083C29.8059 26.432 29.3855 26.6764 29.0495 27.0163L26.897 29.1688C26.8381 29.2317 26.7587 29.2715 26.673 29.281C26.5874 29.2905 26.5012 29.2691 26.43 29.2206C23.6494 27.4597 22.5405 26.3508 20.7796 23.5703C20.7311 23.4991 20.7096 23.4128 20.7191 23.3272C20.7286 23.2415 20.7684 23.162 20.8313 23.1031L22.9839 20.9506C23.3238 20.6146 23.5682 20.1942 23.6919 19.7325C23.8157 19.2709 23.8143 18.7846 23.6879 18.3236L21.7955 11.2615C21.7128 10.9541 21.5311 10.6824 21.2785 10.4886C21.0259 10.2947 20.7164 10.1895 20.398 10.1892H12.9415C12.2451 10.1891 11.5752 10.4561 11.0699 10.9353C10.5645 11.4145 10.2623 12.0692 10.2254 12.7646C10.0237 16.4251 10.6217 20.0856 11.9777 23.4916C13.2868 26.7732 15.2503 29.7538 17.7485 32.2521C20.2467 34.7503 23.2274 36.7138 26.509 38.0229C29.4823 39.2073 32.6541 39.8145 35.8547 39.812C36.3135 39.812 36.7739 39.7998 37.236 39.7753C37.9314 39.7384 38.5862 39.4361 39.0653 38.9307C39.5445 38.4254 39.8115 37.7555 39.8114 37.0591V29.6021C39.811 29.2837 39.7058 28.9742 39.5118 28.7216C39.3179 28.469 39.0462 28.2873 38.7387 28.2046ZM37.4672 37.0586C37.4672 37.1549 37.4303 37.2475 37.3641 37.3174C37.2978 37.3873 37.2073 37.4291 37.1111 37.4342C30.554 37.7834 24.1011 35.2897 19.4061 30.5943C14.711 25.8989 12.2176 19.4455 12.5662 12.8893C12.5713 12.7931 12.6132 12.7026 12.6831 12.6363C12.7529 12.5701 12.8456 12.5332 12.9419 12.5332H19.71L21.4241 18.9305C21.4452 18.9939 21.4471 19.0622 21.4298 19.1268C21.4124 19.1913 21.3765 19.2494 21.3265 19.2937L19.1738 21.4458C18.7345 21.8813 18.4576 22.4542 18.3895 23.0691C18.3213 23.6839 18.466 24.3036 18.7993 24.8247C20.7634 27.926 22.0744 29.2369 25.1757 31.2011C25.6968 31.5345 26.3164 31.6792 26.9313 31.6111C27.5462 31.5429 28.1192 31.266 28.5546 30.8266L30.707 28.674C30.7514 28.624 30.8095 28.5881 30.874 28.5707C30.9386 28.5534 31.0068 28.5553 31.0703 28.5764L37.4676 30.2905L37.4672 37.0586ZM25 0C11.2149 0 0 11.2149 0 25C0 38.7851 11.2149 50 25 50C38.7851 50 50 38.7851 50 25C50 11.2149 38.7851 0 25 0ZM25 47.6562C12.5073 47.6562 2.34375 37.4927 2.34375 25C2.34375 12.5073 12.5073 2.34375 25 2.34375C37.4927 2.34375 47.6562 12.5073 47.6562 25C47.6562 37.4927 37.4927 47.6562 25 47.6562Z" fill="#377CCD"/>
</g>
<defs>
<clipPath id="clip0_20_215">
<rect width="50" height="50" fill="white"/>
</clipPath>
</defs>
</svg>
