<svg width="145" height="130" viewBox="0 0 145 130" fill="none" xmlns="http://www.w3.org/2000/svg">
<g clip-path="url(#clip0_25_2)">
<rect width="145" height="130" fill="white"/>
<path fill-rule="evenodd" clip-rule="evenodd" d="M67.7451 17.8801L73.5423 8L79.3394 17.8801L132.217 108L138.085 118H126.49H20.5943H9L14.8675 108H26.4618L103.331 108L120.623 108L73.5423 27.7602L37.0232 90H25.4289L67.7451 17.8801Z" fill="black"/>
<path d="M29.0064 99.99C29.3864 100.47 29.6664 100.87 29.8464 101.19C30.0264 101.5 30.1164 101.865 30.1164 102.285C30.1164 102.455 30.1014 102.64 30.0714 102.84C29.9114 103.73 29.4964 104.34 28.8264 104.67C28.1564 104.99 27.2964 105.15 26.2464 105.15C25.9364 105.15 24.9664 105.09 23.3364 104.97C23.3064 104.22 23.2914 103.02 23.2914 101.37C23.2914 99.58 23.2964 97.965 23.3064 96.525V94.575C24.1864 94.325 25.0314 94.2 25.8414 94.2C26.9714 94.2 27.8964 94.45 28.6164 94.95C29.3464 95.44 29.7114 96.25 29.7114 97.38C29.7114 98.11 29.4564 98.905 28.9464 99.765V99.75C28.9264 99.79 28.9164 99.82 28.9164 99.84C28.9164 99.87 28.9464 99.915 29.0064 99.975V99.99ZM27.3414 97.38C27.1914 97.1 27.0014 96.93 26.7714 96.87C26.6114 96.85 26.4864 96.84 26.3964 96.84C26.1364 96.82 25.9414 96.795 25.8114 96.765C25.8414 96.935 25.8564 97.195 25.8564 97.545V98.085C25.8564 98.335 25.8614 98.53 25.8714 98.67H26.3064C26.7464 98.67 27.0464 98.52 27.2064 98.22C27.3364 97.98 27.4014 97.785 27.4014 97.635C27.4014 97.545 27.3814 97.46 27.3414 97.38ZM27.3414 101.985C27.3414 101.815 27.3114 101.63 27.2514 101.43V101.445C27.2014 101.335 27.1314 101.235 27.0414 101.145C26.9514 101.055 26.8614 101 26.7714 100.98C26.6114 100.94 26.3764 100.91 26.0664 100.89C26.0364 100.89 26.0014 100.895 25.9614 100.905C25.9314 100.905 25.8964 100.9 25.8564 100.89C25.7564 101.31 25.7064 101.675 25.7064 101.985C25.7064 102.345 25.7614 102.625 25.8714 102.825C26.2314 102.835 26.5114 102.825 26.7114 102.795C26.9214 102.755 27.0964 102.65 27.2364 102.48C27.3064 102.38 27.3414 102.215 27.3414 101.985ZM32.6148 101.67C32.6248 102 32.6398 102.245 32.6598 102.405C32.6898 102.555 32.7598 102.715 32.8698 102.885C32.9498 103.035 33.0548 103.15 33.1848 103.23C33.3148 103.31 33.4498 103.35 33.5898 103.35C33.7998 103.35 33.9698 103.24 34.0998 103.02C34.2298 102.79 34.2848 102.455 34.2648 102.015C34.5548 102.055 34.8648 102.065 35.1948 102.045L36.6048 102.12C36.6048 102.57 36.5698 103.025 36.4998 103.485C36.4398 103.945 36.3198 104.295 36.1398 104.535C35.9398 104.815 35.6498 105.005 35.2698 105.105C34.8998 105.215 34.4648 105.27 33.9648 105.27C33.7748 105.27 33.5098 105.26 33.1698 105.24C33.0098 105.23 32.7748 105.225 32.4648 105.225C32.1548 105.185 31.8448 105.075 31.5348 104.895C31.0548 104.515 30.6998 103.975 30.4698 103.275C30.2398 102.575 30.1248 101.815 30.1248 100.995C30.1248 100.135 30.2448 99.345 30.4848 98.625C30.6848 98.175 31.0548 97.825 31.5948 97.575C32.1348 97.325 32.7348 97.2 33.3948 97.2C33.7548 97.2 34.1048 97.24 34.4448 97.32C35.2148 97.47 35.7748 97.835 36.1248 98.415C36.4848 98.985 36.6648 99.67 36.6648 100.47C36.6648 100.6 36.6548 100.825 36.6348 101.145C36.4448 101.195 36.0098 101.245 35.3298 101.295C34.6498 101.335 34.0148 101.355 33.4248 101.355H32.6148V101.67ZM34.0848 98.97C33.9348 98.88 33.7998 98.835 33.6798 98.835C33.3298 98.835 33.0798 98.915 32.9298 99.075C32.7798 99.235 32.6898 99.46 32.6598 99.75C32.6498 99.79 32.6448 99.835 32.6448 99.885C32.6448 99.945 32.6748 99.98 32.7348 99.99C32.7948 100 32.9448 100 33.1848 99.99H33.8448L34.2948 100.005H34.4898C34.5198 100.015 34.5398 100.015 34.5498 100.005C34.5598 99.995 34.5648 99.975 34.5648 99.945V99.885C34.5648 99.675 34.5248 99.49 34.4448 99.33C34.3748 99.17 34.2748 99.055 34.1448 98.985L34.0848 98.97ZM40.1213 97.515C40.6413 97.495 41.1013 97.47 41.5013 97.44L41.7113 97.425C41.7813 97.415 41.8513 97.415 41.9213 97.425C42.0013 97.425 42.0663 97.425 42.1163 97.425H42.4613C42.5013 97.825 42.5213 98.055 42.5213 98.115C42.5213 98.165 42.5113 98.32 42.4913 98.58L42.4763 98.745L42.4613 99.075C42.4613 99.145 42.4713 99.26 42.4913 99.42H40.1513C40.1513 101.01 40.1463 101.985 40.1363 102.345C40.2863 102.535 40.5563 102.675 40.9463 102.765C41.3363 102.855 41.7413 102.9 42.1613 102.9L42.4763 102.885V103.02L42.4913 103.08V103.065C42.5513 103.485 42.5813 103.86 42.5813 104.19C42.5813 104.51 42.5363 104.8 42.4463 105.06C42.1863 105.08 41.9213 105.09 41.6513 105.09C40.7413 105.09 39.9413 104.985 39.2513 104.775C38.5713 104.555 38.1213 104.185 37.9013 103.665C37.8113 103.125 37.7513 102.59 37.7213 102.06C37.6913 101.52 37.6763 100.905 37.6763 100.215V99.465C37.5463 99.475 37.4263 99.48 37.3163 99.48C37.2163 99.47 37.1263 99.465 37.0463 99.465H36.5962L36.6412 97.485C36.9113 97.495 37.2663 97.5 37.7063 97.5L37.7213 94.635C37.9413 94.615 38.1313 94.605 38.2913 94.605C38.4513 94.605 38.6412 94.615 38.8612 94.635L38.9663 94.65C39.2063 94.67 39.3913 94.68 39.5213 94.68C39.7113 94.68 39.9063 94.665 40.1063 94.635V97.365L40.1213 97.515ZM45.412 97.215C45.462 97.225 45.642 97.23 45.952 97.23C46.012 97.22 46.137 97.215 46.327 97.215C46.447 97.215 46.532 97.22 46.582 97.23C46.932 97.25 47.262 97.32 47.572 97.44C47.892 97.55 48.147 97.7 48.337 97.89C48.627 98.12 48.817 98.48 48.907 98.97C48.997 99.46 49.042 100.03 49.042 100.68V101.175C49.012 102.025 48.962 102.74 48.892 103.32C48.822 103.9 48.702 104.29 48.532 104.49C48.332 104.77 48.042 104.965 47.662 105.075C47.292 105.185 46.857 105.24 46.357 105.24C46.167 105.24 45.902 105.23 45.562 105.21C45.242 105.19 44.997 105.18 44.827 105.18C44.297 105.08 43.832 104.855 43.432 104.505C43.122 104.205 42.907 103.83 42.787 103.38C42.667 102.92 42.607 102.405 42.607 101.835L42.592 100.125C42.562 99.855 42.592 99.465 42.682 98.955C42.782 98.445 42.882 98.155 42.982 98.085C43.092 97.805 43.377 97.59 43.837 97.44C44.307 97.29 44.832 97.215 45.412 97.215ZM45.097 100.245C45.087 100.345 45.077 100.485 45.067 100.665C45.057 100.835 45.052 100.965 45.052 101.055L45.037 101.355C45.037 101.605 45.027 101.88 45.007 102.18C45.017 102.4 45.102 102.58 45.262 102.72C45.422 102.86 45.602 102.93 45.802 102.93C46.002 102.93 46.202 102.885 46.402 102.795C46.462 102.765 46.537 102.6 46.627 102.3L46.642 102.225C46.702 101.725 46.732 101.36 46.732 101.13C46.732 100.89 46.712 100.675 46.672 100.485C46.622 100.225 46.522 100.02 46.372 99.87C46.232 99.72 46.052 99.645 45.832 99.645C45.792 99.645 45.712 99.655 45.592 99.675C45.342 99.755 45.197 99.865 45.157 100.005L45.097 100.245ZM51.9407 98.04C51.9507 98.04 51.9507 98.04 51.9407 98.04C51.9407 98.03 51.9457 98.025 51.9557 98.025C52.1957 97.865 52.4707 97.74 52.7807 97.65C53.1007 97.55 53.4157 97.5 53.7257 97.5C54.3857 97.5 54.8957 97.66 55.2557 97.98C55.5357 98.23 55.6757 99.055 55.6757 100.455C55.6757 100.865 55.6657 101.49 55.6457 102.33C55.6257 103.05 55.6157 103.565 55.6157 103.875C55.6157 104.215 55.6257 104.595 55.6457 105.015C55.0957 105.095 54.5557 105.125 54.0257 105.105H53.3207C53.3007 104.805 53.2907 104.225 53.2907 103.365V102.615C53.2907 102.125 53.2807 101.77 53.2607 101.55L53.2457 101.46V101.355C53.2257 101.075 53.2007 100.855 53.1707 100.695C53.1507 100.535 53.0857 100.385 52.9757 100.245C52.8757 100.105 52.7157 100.035 52.4957 100.035C52.3357 100.035 52.1907 100.105 52.0607 100.245C51.9307 100.385 51.8607 100.595 51.8507 100.875C51.8407 101.025 51.8357 101.255 51.8357 101.565C51.8357 101.815 51.8457 102.18 51.8657 102.66C51.8857 103.16 51.8957 103.535 51.8957 103.785C51.8957 104.235 51.8757 104.635 51.8357 104.985C51.5657 105.055 51.3457 105.095 51.1757 105.105C51.0157 105.125 50.8357 105.13 50.6357 105.12C50.5457 105.11 50.4007 105.105 50.2007 105.105C49.9707 105.105 49.7457 105.115 49.5257 105.135C49.5257 103.935 49.5207 103.045 49.5107 102.465C49.4907 101.165 49.4807 100.18 49.4807 99.51C49.4807 99.02 49.4907 98.325 49.5107 97.425C49.8307 97.465 50.0807 97.485 50.2607 97.485C50.4307 97.485 50.5957 97.475 50.7557 97.455L51.0107 97.425C51.2307 97.405 51.4007 97.395 51.5207 97.395C51.7607 97.395 51.8907 97.43 51.9107 97.5C51.9307 97.62 51.9407 97.795 51.9407 98.025V98.04ZM66.4215 97.65C66.4215 97.84 66.4165 97.975 66.4065 98.055C66.3365 98.625 66.1165 99.15 65.7465 99.63C65.3765 100.11 64.9165 100.49 64.3665 100.77C63.8165 101.04 63.2365 101.175 62.6265 101.175C62.5965 101.175 62.5565 101.18 62.5065 101.19C62.4565 101.19 62.3965 101.185 62.3265 101.175C62.3365 101.295 62.3365 101.415 62.3265 101.535C62.3265 101.655 62.3265 101.765 62.3265 101.865V104.91L62.1615 104.925C61.8915 105.005 61.4215 105.045 60.7515 105.045C60.2515 105.045 59.7915 105.02 59.3715 104.97C59.3315 104 59.3115 102.315 59.3115 99.915V98.1C59.3115 96.47 59.2965 95.285 59.2665 94.545C60.0365 94.325 60.8415 94.215 61.6815 94.215C62.9715 94.215 64.0665 94.49 64.9665 95.04C65.8765 95.58 66.3615 96.445 66.4215 97.635V97.65ZM63.4515 96.975C63.2915 96.835 63.1165 96.745 62.9265 96.705C62.7365 96.665 62.5415 96.645 62.3415 96.645C62.1515 96.635 62.0065 96.63 61.9065 96.63C61.9165 96.79 61.9215 97.06 61.9215 97.44V97.575C61.9215 97.875 61.9265 98.125 61.9365 98.325C61.9565 98.515 61.9915 98.685 62.0415 98.835H62.2515C62.3215 98.835 62.4665 98.835 62.6865 98.835C62.9165 98.835 63.1115 98.805 63.2715 98.745C63.4415 98.685 63.5715 98.585 63.6615 98.445C63.7615 98.275 63.8115 98.08 63.8115 97.86C63.8115 97.59 63.7315 97.34 63.5715 97.11L63.4515 96.975ZM69.2126 97.815C69.2626 97.805 69.3226 97.785 69.3926 97.755C69.4726 97.715 69.5476 97.685 69.6176 97.665C70.0376 97.535 70.5826 97.47 71.2526 97.47C71.7426 97.47 71.9876 97.495 71.9876 97.545L71.9726 98.325L71.9876 100.35L71.5826 100.215L70.7126 100.005C70.4726 99.975 70.2576 99.96 70.0676 99.96C69.7576 99.96 69.5226 100.035 69.3626 100.185C69.2026 100.335 69.1276 100.595 69.1376 100.965C69.1776 102.195 69.1976 103.535 69.1976 104.985C68.9376 105.055 68.7226 105.095 68.5526 105.105C68.3826 105.125 68.1676 105.13 67.9076 105.12C67.8076 105.11 67.6476 105.105 67.4276 105.105C67.1876 105.105 66.9576 105.115 66.7376 105.135C66.7376 103.935 66.7326 103.045 66.7226 102.465C66.7026 101.165 66.6926 100.18 66.6926 99.51C66.6926 99.02 66.7026 98.325 66.7226 97.425C67.0426 97.465 67.2926 97.485 67.4726 97.485C67.7326 97.485 67.9876 97.47 68.2376 97.44C68.4776 97.41 68.7126 97.395 68.9426 97.395C69.1126 97.395 69.1976 97.41 69.1976 97.44L69.2126 97.8V97.815ZM74.48 101.67C74.49 102 74.505 102.245 74.525 102.405C74.555 102.555 74.625 102.715 74.735 102.885C74.815 103.035 74.92 103.15 75.05 103.23C75.18 103.31 75.315 103.35 75.455 103.35C75.665 103.35 75.835 103.24 75.965 103.02C76.095 102.79 76.15 102.455 76.13 102.015C76.42 102.055 76.73 102.065 77.06 102.045L78.47 102.12C78.47 102.57 78.435 103.025 78.365 103.485C78.305 103.945 78.185 104.295 78.005 104.535C77.805 104.815 77.515 105.005 77.135 105.105C76.765 105.215 76.33 105.27 75.83 105.27C75.64 105.27 75.375 105.26 75.035 105.24C74.875 105.23 74.64 105.225 74.33 105.225C74.02 105.185 73.71 105.075 73.4 104.895C72.92 104.515 72.565 103.975 72.335 103.275C72.105 102.575 71.99 101.815 71.99 100.995C71.99 100.135 72.11 99.345 72.35 98.625C72.55 98.175 72.92 97.825 73.46 97.575C74 97.325 74.6 97.2 75.26 97.2C75.62 97.2 75.97 97.24 76.31 97.32C77.08 97.47 77.64 97.835 77.99 98.415C78.35 98.985 78.53 99.67 78.53 100.47C78.53 100.6 78.52 100.825 78.5 101.145C78.31 101.195 77.875 101.245 77.195 101.295C76.515 101.335 75.88 101.355 75.29 101.355H74.48V101.67ZM75.95 98.97C75.8 98.88 75.665 98.835 75.545 98.835C75.195 98.835 74.945 98.915 74.795 99.075C74.645 99.235 74.555 99.46 74.525 99.75C74.515 99.79 74.51 99.835 74.51 99.885C74.51 99.945 74.54 99.98 74.6 99.99C74.66 100 74.81 100 75.05 99.99H75.71L76.16 100.005H76.355C76.385 100.015 76.405 100.015 76.415 100.005C76.425 99.995 76.43 99.975 76.43 99.945V99.885C76.43 99.675 76.39 99.49 76.31 99.33C76.24 99.17 76.14 99.055 76.01 98.985L75.95 98.97ZM81.3251 98.04C81.3351 98.04 81.3351 98.04 81.3251 98.04C81.3251 98.03 81.3301 98.025 81.3401 98.025C81.5801 97.865 81.8551 97.74 82.1651 97.65C82.4851 97.55 82.8001 97.5 83.1101 97.5C83.7701 97.5 84.2801 97.66 84.6401 97.98C84.6401 97.99 84.6701 98.025 84.7301 98.085C84.7401 98.085 84.7401 98.09 84.7301 98.1C84.7201 98.1 84.7201 98.105 84.7301 98.115L84.8651 98.025C85.1051 97.865 85.3801 97.74 85.6901 97.65C86.0001 97.55 86.3151 97.5 86.6351 97.5C87.2951 97.5 87.8051 97.66 88.1651 97.98C88.4451 98.23 88.5851 99.055 88.5851 100.455C88.5851 100.865 88.5751 101.49 88.5551 102.33C88.5351 103.05 88.5251 103.565 88.5251 103.875C88.5251 104.215 88.5351 104.595 88.5551 105.015C88.0051 105.095 87.4651 105.125 86.9351 105.105H86.2301C86.2101 104.805 86.2001 104.225 86.2001 103.365V102.615C86.2001 102.055 86.1851 101.635 86.1551 101.355C86.1051 100.835 86.0351 100.485 85.9451 100.305C85.8551 100.125 85.7001 100.035 85.4801 100.035C85.3801 100.035 85.2951 100.075 85.2251 100.155C85.1551 100.225 85.1001 100.375 85.0601 100.605C85.0601 101.025 85.0501 101.675 85.0301 102.555C85.0101 103.215 85.0001 103.69 85.0001 103.98C85.0001 104.29 85.0101 104.635 85.0301 105.015C84.4801 105.095 83.9401 105.125 83.4101 105.105H82.7051C82.6851 104.805 82.6751 104.225 82.6751 103.365V102.615C82.6751 102.125 82.6651 101.77 82.6451 101.55C82.6451 101.54 82.6401 101.525 82.6301 101.505C82.6301 101.475 82.6301 101.425 82.6301 101.355C82.6101 101.025 82.5751 100.755 82.5251 100.545C82.4851 100.335 82.4051 100.19 82.2851 100.11C82.2051 100.06 82.0901 100.035 81.9401 100.035C81.7601 100.035 81.6001 100.1 81.4601 100.23C81.3201 100.36 81.2451 100.575 81.2351 100.875C81.2251 101.025 81.2201 101.255 81.2201 101.565C81.2201 101.815 81.2301 102.18 81.2501 102.66C81.2701 103.16 81.2801 103.535 81.2801 103.785C81.2801 104.235 81.2601 104.635 81.2201 104.985C80.9501 105.055 80.7301 105.095 80.5601 105.105C80.4001 105.125 80.2201 105.13 80.0201 105.12C79.9301 105.11 79.7851 105.105 79.5851 105.105C79.3551 105.105 79.1301 105.115 78.9101 105.135C78.9101 103.935 78.9051 103.045 78.8951 102.465C78.8751 101.165 78.8651 100.18 78.8651 99.51C78.8651 99.02 78.8751 98.325 78.8951 97.425C79.2151 97.465 79.4651 97.485 79.6451 97.485C79.8151 97.485 79.9801 97.475 80.1401 97.455L80.3951 97.425C80.6151 97.405 80.7851 97.395 80.9051 97.395C81.1451 97.395 81.2751 97.43 81.2951 97.5C81.3151 97.62 81.3251 97.795 81.3251 98.025V98.04ZM91.624 94.155C91.624 94.425 91.629 94.65 91.639 94.83C91.639 94.93 91.649 95.11 91.669 95.37L91.699 96.33C91.649 96.39 91.569 96.42 91.459 96.42C91.389 96.42 91.294 96.415 91.174 96.405C91.054 96.385 90.954 96.375 90.874 96.375C90.754 96.375 90.564 96.365 90.304 96.345C90.204 96.335 90.034 96.33 89.794 96.33C89.534 96.33 89.334 96.335 89.194 96.345C89.194 96.135 89.184 95.86 89.164 95.52L89.149 95.28C89.129 94.84 89.124 94.45 89.134 94.11L91.624 94.155ZM91.684 97.455C91.684 97.975 91.674 98.735 91.654 99.735L91.639 100.575C91.619 101.495 91.609 102.185 91.609 102.645C91.609 103.505 91.629 104.26 91.669 104.91C91.619 104.98 91.514 105.025 91.354 105.045C91.204 105.075 90.994 105.09 90.724 105.09C90.414 105.09 90.199 105.085 90.079 105.075C89.689 105.055 89.359 105.085 89.089 105.165C89.139 104.495 89.164 103.82 89.164 103.14C89.164 102.72 89.154 102.1 89.134 101.28C89.114 100.6 89.104 100.01 89.104 99.51C89.104 98.77 89.134 98.055 89.194 97.365C89.334 97.345 89.454 97.335 89.554 97.335C89.644 97.335 89.714 97.34 89.764 97.35C90.384 97.38 90.869 97.39 91.219 97.38L91.684 97.455ZM95.9295 104.46L95.8995 104.475H95.9145C95.6745 104.635 95.3995 104.765 95.0895 104.865C94.7795 104.955 94.4645 105 94.1445 105C93.4845 105 92.9745 104.84 92.6145 104.52C92.3345 104.27 92.1945 103.445 92.1945 102.045C92.1945 101.635 92.2045 101.01 92.2245 100.17C92.2445 99.45 92.2545 98.935 92.2545 98.625C92.2545 98.285 92.2445 97.905 92.2245 97.485C92.7545 97.405 93.2945 97.375 93.8445 97.395H94.5495C94.5695 97.695 94.5795 98.275 94.5795 99.135C94.5795 99.695 94.5895 100.195 94.6095 100.635C94.6195 100.765 94.6245 100.935 94.6245 101.145C94.6645 101.815 94.7845 102.235 94.9845 102.405C95.0645 102.445 95.1745 102.465 95.3145 102.465C95.4945 102.465 95.6495 102.4 95.7795 102.27C95.9195 102.14 95.9995 101.925 96.0195 101.625C96.0395 101.345 96.0495 101.14 96.0495 101.01C96.0495 100.67 96.0345 100.32 96.0045 99.96C95.9945 99.84 95.9845 99.665 95.9745 99.435C95.9645 99.195 95.9595 98.985 95.9595 98.805C95.9595 98.285 95.9845 97.855 96.0345 97.515C96.2945 97.445 96.5045 97.405 96.6645 97.395C96.8245 97.375 97.0045 97.37 97.2045 97.38C97.2945 97.39 97.4495 97.395 97.6695 97.395C97.8995 97.395 98.1245 97.385 98.3445 97.365C98.3445 98.565 98.3495 99.455 98.3595 100.035C98.3795 101.335 98.3895 102.32 98.3895 102.99C98.3895 103.47 98.3795 104.16 98.3595 105.06L97.9995 105.045C97.7895 105.045 97.5945 105.05 97.4145 105.06C97.1145 105.09 96.8045 105.105 96.4845 105.105C96.1345 105.105 95.9595 105.07 95.9595 105C95.9395 104.87 95.9295 104.695 95.9295 104.475V104.46ZM101.437 98.04C101.447 98.04 101.447 98.04 101.437 98.04C101.437 98.03 101.442 98.025 101.452 98.025C101.692 97.865 101.967 97.74 102.277 97.65C102.597 97.55 102.912 97.5 103.222 97.5C103.882 97.5 104.392 97.66 104.752 97.98C104.752 97.99 104.782 98.025 104.842 98.085C104.852 98.085 104.852 98.09 104.842 98.1C104.832 98.1 104.832 98.105 104.842 98.115L104.977 98.025C105.217 97.865 105.492 97.74 105.802 97.65C106.112 97.55 106.427 97.5 106.747 97.5C107.407 97.5 107.917 97.66 108.277 97.98C108.557 98.23 108.697 99.055 108.697 100.455C108.697 100.865 108.687 101.49 108.667 102.33C108.647 103.05 108.637 103.565 108.637 103.875C108.637 104.215 108.647 104.595 108.667 105.015C108.117 105.095 107.577 105.125 107.047 105.105H106.342C106.322 104.805 106.312 104.225 106.312 103.365V102.615C106.312 102.055 106.297 101.635 106.267 101.355C106.217 100.835 106.147 100.485 106.057 100.305C105.967 100.125 105.812 100.035 105.592 100.035C105.492 100.035 105.407 100.075 105.337 100.155C105.267 100.225 105.212 100.375 105.172 100.605C105.172 101.025 105.162 101.675 105.142 102.555C105.122 103.215 105.112 103.69 105.112 103.98C105.112 104.29 105.122 104.635 105.142 105.015C104.592 105.095 104.052 105.125 103.522 105.105H102.817C102.797 104.805 102.787 104.225 102.787 103.365V102.615C102.787 102.125 102.777 101.77 102.757 101.55C102.757 101.54 102.752 101.525 102.742 101.505C102.742 101.475 102.742 101.425 102.742 101.355C102.722 101.025 102.687 100.755 102.637 100.545C102.597 100.335 102.517 100.19 102.397 100.11C102.317 100.06 102.202 100.035 102.052 100.035C101.872 100.035 101.712 100.1 101.572 100.23C101.432 100.36 101.357 100.575 101.347 100.875C101.337 101.025 101.332 101.255 101.332 101.565C101.332 101.815 101.342 102.18 101.362 102.66C101.382 103.16 101.392 103.535 101.392 103.785C101.392 104.235 101.372 104.635 101.332 104.985C101.062 105.055 100.842 105.095 100.672 105.105C100.512 105.125 100.332 105.13 100.132 105.12C100.042 105.11 99.8974 105.105 99.6974 105.105C99.4674 105.105 99.2424 105.115 99.0224 105.135C99.0224 103.935 99.0174 103.045 99.0074 102.465C98.9874 101.165 98.9774 100.18 98.9774 99.51C98.9774 99.02 98.9874 98.325 99.0074 97.425C99.3274 97.465 99.5774 97.485 99.7574 97.485C99.9274 97.485 100.092 97.475 100.252 97.455L100.507 97.425C100.727 97.405 100.897 97.395 101.017 97.395C101.257 97.395 101.387 97.43 101.407 97.5C101.427 97.62 101.437 97.795 101.437 98.025V98.04Z" fill="black"/>
<path d="M73.5423 43L99.3401 88H47.7445L73.5423 43Z" fill="black"/>
<path d="M74.0387 61L84.7878 79.75H63.2896L74.0387 61Z" fill="white"/>
</g>
<defs>
<clipPath id="clip0_25_2">
<rect width="145" height="130" fill="white"/>
</clipPath>
</defs>
</svg>
