<svg width="50" height="30" viewBox="0 0 50 30" fill="none" xmlns="http://www.w3.org/2000/svg">
<path d="M45.0696 0H4.93006C2.2085 0.00284826 0.00303644 2.07164 0 4.62454V25.3755C0.00303644 27.9283 2.2085 29.9972 4.93006 30H45.0696C47.7913 29.9972 49.997 27.9285 50 25.3755V4.62454C49.997 2.07164 47.7913 0.00284826 45.0696 0ZM33.6866 15L47.903 3.76806C47.9985 4.04472 48.047 4.33373 48.0469 4.62444V25.3754C48.047 25.6661 47.9985 25.9551 47.9031 26.2317L33.6866 15ZM45.0696 1.8321C45.6589 1.83153 46.2349 1.99587 46.7241 2.30415L25 19.4679L3.27591 2.30415C3.76498 1.99587 4.34099 1.83153 4.93016 1.83219L45.0696 1.8321ZM2.09706 26.2321C2.00162 25.9554 1.95314 25.6664 1.95324 25.3756V4.62454C1.95314 4.33382 2.00172 4.04472 2.09706 3.76806L16.3133 15L2.09706 26.2321ZM4.93006 28.168C4.34099 28.1688 3.76498 28.0045 3.27591 27.6964L17.8291 16.1982L24.3708 21.3664C24.7343 21.6536 25.2656 21.6536 25.629 21.3664L32.1707 16.1981L46.7239 27.6958C46.2348 28.0041 45.6588 28.1686 45.0695 28.1679H4.93006V28.168Z" fill="#377CCD"/>
</svg>
